<svg height="512pt" viewBox="-66 0 512 512.00084" width="512pt" xmlns="http://www.w3.org/2000/svg"><g fill="#ffd89e" fill-rule="evenodd"><path d="m241.9375 69.230469c15.117188-56.417969-163.878906-113.378907-204.210938 37.136719-18.21875 67.996093 78.859376 104.09375 98.824219 29.582031 20.671875-77.152344 97.726563-38.140625 105.386719-66.71875zm0 0"/><path d="m347.375 160.441406c-38.757812-67.125-142.453125-19.648437-99.980469 53.910156 43.976563 76.167969-46.398437 105.789063-30.105469 134.003907 32.15625 55.695312 215.875-39.320313 130.085938-187.914063zm0 0"/><path d="m255.988281 451.03125c0-38.789062-110.8125-15.53125-110.8125-120.242188 0-101.132812-135.175781-88.355468-135.175781 3.929688 0 204.28125 245.988281 192.882812 245.988281 116.3125zm0 0"/></g><path d="m223.832031 413.964844c-32.179687-11.753906-68.65625-25.078125-68.65625-83.175782 0-25.128906-7.773437-46.085937-22.480469-60.613281-13.117187-12.953125-31.140624-20.085937-50.746093-20.085937-20.585938 0-40.988281 7.996094-55.980469 21.941406-11.847656 11.023438-25.96875 30.84375-25.96875 62.6875 0 57.972656 19.503906 105.375 56.398438 137.082031 29.734374 25.546875 70.738281 40.199219 112.507812 40.199219 56.253906 0 97.082031-25.640625 97.082031-60.96875 0-21.667969-21.429687-29.496094-42.15625-37.066406zm1.511719 65.359375c-14.550781 8.175781-34.59375 12.675781-56.4375 12.675781-37.058594 0-73.3125-12.890625-99.472656-35.367188-32.339844-27.792968-49.433594-69.949218-49.433594-121.914062 0-41.980469 31.914062-64.628906 61.945312-64.628906 14.3125 0 27.34375 5.082031 36.695313 14.316406 10.816406 10.6875 16.535156 26.722656 16.535156 46.382812 0 72.085938 49.222657 90.066407 81.796875 101.960938 17.988282 6.570312 29.015625 10.972656 29.015625 18.28125 0 13.796875-11.226562 23-20.644531 28.292969zm0 0"/><path d="m61.214844 355.859375c-.65625-5.484375-5.632813-9.402344-11.117188-8.738281-5.484375.660156-9.394531 5.636718-8.738281 11.121094 2.679687 22.308593 9.285156 41.941406 19.636719 58.351562 1.902344 3.015625 5.148437 4.667969 8.46875 4.667969 1.824218 0 3.667968-.5 5.324218-1.542969 4.671876-2.949219 6.070313-9.125 3.125-13.792969-8.761718-13.882812-14.378906-30.730469-16.699218-50.066406zm0 0"/><path d="m377.246094 210.113281c-1.070313-5.417969-6.332032-8.945312-11.746094-7.871093-5.421875 1.070312-8.941406 6.332031-7.875 11.75 14.207031 71.867187-39.175781 119.945312-78.519531 134.726562-24.988281 9.386719-45.851563 7.28125-53.15625-5.363281-2.488281-4.308594 3.351562-11.8125 13.269531-23.65625 18.984375-22.675781 47.671875-56.941407 16.835938-110.347657-12.300782-21.304687-11.453126-41.8125 2.332031-56.257812 14.636719-15.34375 39.128906-19.316406 58.242187-9.449219 4.910156 2.535157 10.941406.609375 13.476563-4.296875 2.53125-4.90625.609375-10.9375-4.300781-13.472656-26.820313-13.847656-61.261719-8.207031-81.890626 13.414062-20.050781 21.019532-21.988281 50.949219-5.179687 80.0625 23.839844 41.292969 3.285156 65.847657-14.851563 87.511719-12.25 14.628907-24.914062 29.761719-15.253906 46.492188 7.972656 13.8125 23.3125 21.046875 42.417969 21.042969 10.722656 0 22.636719-2.28125 35.089844-6.957032 27.746093-10.425781 53.4375-30.71875 70.480469-55.679687 20.660156-30.253907 27.792968-65.402344 20.628906-101.648438zm0 0"/><path d="m89.378906 187.296875c4.890625 0 9.753906-.613281 14.453125-1.871094 20.710938-5.550781 35.761719-22.203125 42.375-46.886719 11.042969-41.207031 38.4375-43.636718 64.929688-45.984374 17.574219-1.558594 35.753906-3.167969 40.457031-20.738282 3.785156-14.121094-1.101562-28.867187-13.753906-41.519531-12.0625-12.066406-30.261719-21.453125-51.234375-26.4375-22.515625-5.351563-45.785157-5.132813-67.292969.628906-21.050781 5.644531-39.382812 16.273438-54.476562 31.59375-16.980469 17.234375-29.347657 40.007813-36.769532 67.695313-6.503906 24.277344-.65625 47.777344 16.046875 64.480468 12.226563 12.230469 28.925781 19.039063 45.265625 19.039063zm-41.992187-78.34375c15.382812-57.417969 50.421875-77.996094 77.101562-85.144531 9.628907-2.582032 19.460938-3.734375 29.082031-3.734375 29.148438 0 56.367188 10.605469 70.125 24.363281 5.230469 5.226562 10.960938 13.324219 8.582032 22.203125-1.085938 4.058594-11.6875 5-22.90625 5.992187-27.007813 2.394532-67.816406 6.011719-82.480469 60.726563-4.753906 17.75-14.519531 29.070313-28.234375 32.746094-13.613281 3.648437-29.472656-1.058594-40.402344-11.988281-6.765625-6.765626-17.175781-21.628907-10.867187-45.164063zm0 0"/><path d="m107.738281 435.4375-.003906-.007812c-4.242187-3.535157-10.546875-2.957032-14.082031 1.285156-3.535156 4.242187-2.957032 10.550781 1.285156 14.085937 1.867188 1.558594 4.136719 2.316407 6.394531 2.316407 2.863281 0 5.710938-1.222657 7.6875-3.597657 3.535157-4.242187 2.964844-10.546875-1.28125-14.082031zm0 0"/><path d="m352.128906 179.136719c1.789063 0 3.597656-.480469 5.230469-1.484375 4.703125-2.898438 6.171875-9.054688 3.277344-13.757813l-.003907-.007812c-2.898437-4.703125-9.054687-6.164063-13.757812-3.269531-4.703125 2.894531-6.167969 9.054687-3.273438 13.757812 1.890626 3.070312 5.167969 4.761719 8.527344 4.761719zm0 0"/></svg>